# xmcd
#
# Track frame offsets:
#	150
#	5135
#	22271
#	42056
#	59133
#	75148
#	93836
#	113151
#	129272
#	145965
#	166380
#
# Disc length: 2451 seconds
# Revision: 1
# Processed by: cddbd v1.5.2PL0 Copyright (c) Steve Scherf et al.
# Submitted via: dBpowerAMP V12.0
#
DISCID=8a09910b
DTITLE=ElvisCrespo,AKAElvisCrespoDíaz,NYC,thenGuaynabo,PuertoRico - Indestructible
DYEAR=2010
DGENRE=Merengue
TTITLE0=Introctible
TTITLE1=Romàntico
TTITLE2=15 Inviernos feat. Zone D' Tambora
TTITLE3=Dulce, salada
TTITLE4=Tu paño
TTITLE5=Hey Dude!
TTITLE6=Un dia fuiste una flor feat. Bachata Heightz
TTITLE7=Solita
TTITLE8=Algo heavy
TTITLE9=La novia bella
TTITLE10=Mi problema feat. Omega y Julio Voltio
EXTD=
EXTT0=
EXTT1=
EXTT2=
EXTT3=
EXTT4=
EXTT5=
EXTT6=
EXTT7=
EXTT8=
EXTT9=
EXTT10=
PLAYORDER=
